# xmcd
#
# Track frame offsets: 
#        150
#        13875
#        29785
#        51882
#        69695
#        81761
#        101824
#        113243
#        133100
#        150125
#        168604
#        182320
#        201727
#        222077
#        239515
#        256756
#        271644
#        286232
#        297136
#        316468
#        330184
#        346731
#
# Disc length: 4792 seconds
#
# Revision: 0
# Processed by: cddbd v1.5.2PL0 Copyright (c) Steve Scherf et al.
# Submitted via: ExactAudioCopyFreeDBPlugin 1.0
#
DISCID=4112b616
DTITLE=Lightnin' Hopkins - Mojo hand and Blues in my bottle
DYEAR=2015
DGENRE=
TTITLE0=Mojo hand
TTITLE1=Coffee for mama
TTITLE2=Awful dream
TTITLE3=Black mare trot
TTITLE4=Have you ever loved a woman
TTITLE5=Glory bee
TTITLE6=Sometimes and will
TTITLE7=Shine on, moon
TTITLE8=Santa
TTITLE9=Buddy Brown's blues
TTITLE10=Wine spodee-o-dee
TTITLE11=Sail on, little girl, sail on
TTITLE12=DC-7
TTITLE13=Death bells
TTITLE14=Going to Dallas to see my pony run
TTITLE15=Jailhouse blues
TTITLE16=Blues in the bottle
TTITLE17=Beans, beans, beans
TTITLE18=Catfish blues
TTITLE19=My grandpa is old too!
TTITLE20=Black cadillac
TTITLE21=Good morning little school girl
EXTD=
EXTT0=
EXTT1=
EXTT2=
EXTT3=
EXTT4=
EXTT5=
EXTT6=
EXTT7=
EXTT8=
EXTT9=
EXTT10=
EXTT11=
EXTT12=
EXTT13=
EXTT14=
EXTT15=
EXTT16=
EXTT17=
EXTT18=
EXTT19=
EXTT20=
EXTT21=
PLAYORDER=
